<mxfile host="app.diagrams.net" agent="Mozilla/5.0 (Windows NT 10.0; Win64; x64) AppleWebKit/537.36 (KHTML, like Gecko) Chrome/135.0.0.0 Safari/537.36" version="26.2.14">
  <diagram id="_q18Ulnn0w6DP8smZYqK" name="Page-2">
    <mxGraphModel dx="2135" dy="937" grid="1" gridSize="10" guides="1" tooltips="1" connect="1" arrows="1" fold="1" page="1" pageScale="1" pageWidth="827" pageHeight="1169" math="0" shadow="0">
      <root>
        <mxCell id="0" />
        <mxCell id="1" parent="0" />
        <mxCell id="oR5KdOzYDsC5t6uzYSJo-40" value="" style="rounded=0;whiteSpace=wrap;html=1;movable=1;resizable=1;rotatable=1;deletable=1;editable=1;locked=0;connectable=1;" parent="1" vertex="1">
          <mxGeometry x="190" y="90" width="90" height="160" as="geometry" />
        </mxCell>
        <mxCell id="oR5KdOzYDsC5t6uzYSJo-42" value="" style="endArrow=none;html=1;rounded=0;movable=1;resizable=1;rotatable=1;deletable=1;editable=1;locked=0;connectable=1;" parent="1" edge="1">
          <mxGeometry width="50" height="50" relative="1" as="geometry">
            <mxPoint x="190" y="130" as="sourcePoint" />
            <mxPoint x="280" y="130" as="targetPoint" />
            <Array as="points">
              <mxPoint x="190" y="130" />
            </Array>
          </mxGeometry>
        </mxCell>
        <mxCell id="oR5KdOzYDsC5t6uzYSJo-43" value="" style="endArrow=none;html=1;rounded=0;movable=1;resizable=1;rotatable=1;deletable=1;editable=1;locked=0;connectable=1;" parent="1" edge="1">
          <mxGeometry width="50" height="50" relative="1" as="geometry">
            <mxPoint x="190" y="170" as="sourcePoint" />
            <mxPoint x="280" y="170" as="targetPoint" />
            <Array as="points">
              <mxPoint x="190" y="170" />
            </Array>
          </mxGeometry>
        </mxCell>
        <mxCell id="oR5KdOzYDsC5t6uzYSJo-44" value="" style="endArrow=none;html=1;rounded=0;movable=1;resizable=1;rotatable=1;deletable=1;editable=1;locked=0;connectable=1;" parent="1" edge="1">
          <mxGeometry width="50" height="50" relative="1" as="geometry">
            <mxPoint x="190" y="210" as="sourcePoint" />
            <mxPoint x="280" y="210" as="targetPoint" />
            <Array as="points">
              <mxPoint x="190" y="210" />
            </Array>
          </mxGeometry>
        </mxCell>
        <mxCell id="oR5KdOzYDsC5t6uzYSJo-45" value="" style="rounded=0;whiteSpace=wrap;html=1;movable=1;resizable=1;rotatable=1;deletable=1;editable=1;locked=0;connectable=1;" parent="1" vertex="1">
          <mxGeometry x="324" y="90" width="90" height="160" as="geometry" />
        </mxCell>
        <mxCell id="oR5KdOzYDsC5t6uzYSJo-46" value="" style="endArrow=none;html=1;rounded=0;movable=1;resizable=1;rotatable=1;deletable=1;editable=1;locked=0;connectable=1;" parent="1" edge="1">
          <mxGeometry width="50" height="50" relative="1" as="geometry">
            <mxPoint x="324" y="130" as="sourcePoint" />
            <mxPoint x="414" y="130" as="targetPoint" />
            <Array as="points">
              <mxPoint x="324" y="130" />
            </Array>
          </mxGeometry>
        </mxCell>
        <mxCell id="oR5KdOzYDsC5t6uzYSJo-47" value="" style="endArrow=none;html=1;rounded=0;movable=1;resizable=1;rotatable=1;deletable=1;editable=1;locked=0;connectable=1;" parent="1" edge="1">
          <mxGeometry width="50" height="50" relative="1" as="geometry">
            <mxPoint x="324" y="170" as="sourcePoint" />
            <mxPoint x="414" y="170" as="targetPoint" />
            <Array as="points">
              <mxPoint x="324" y="170" />
            </Array>
          </mxGeometry>
        </mxCell>
        <mxCell id="oR5KdOzYDsC5t6uzYSJo-48" value="" style="endArrow=none;html=1;rounded=0;movable=1;resizable=1;rotatable=1;deletable=1;editable=1;locked=0;connectable=1;" parent="1" edge="1">
          <mxGeometry width="50" height="50" relative="1" as="geometry">
            <mxPoint x="324" y="210" as="sourcePoint" />
            <mxPoint x="414" y="210" as="targetPoint" />
            <Array as="points">
              <mxPoint x="324" y="210" />
            </Array>
          </mxGeometry>
        </mxCell>
        <mxCell id="oR5KdOzYDsC5t6uzYSJo-49" value="" style="rounded=0;whiteSpace=wrap;html=1;movable=1;resizable=1;rotatable=1;deletable=1;editable=1;locked=0;connectable=1;" parent="1" vertex="1">
          <mxGeometry x="450" y="90" width="90" height="160" as="geometry" />
        </mxCell>
        <mxCell id="oR5KdOzYDsC5t6uzYSJo-50" value="" style="endArrow=none;html=1;rounded=0;movable=1;resizable=1;rotatable=1;deletable=1;editable=1;locked=0;connectable=1;" parent="1" edge="1">
          <mxGeometry width="50" height="50" relative="1" as="geometry">
            <mxPoint x="450" y="130" as="sourcePoint" />
            <mxPoint x="540" y="130" as="targetPoint" />
            <Array as="points">
              <mxPoint x="450" y="130" />
            </Array>
          </mxGeometry>
        </mxCell>
        <mxCell id="oR5KdOzYDsC5t6uzYSJo-51" value="" style="endArrow=none;html=1;rounded=0;movable=1;resizable=1;rotatable=1;deletable=1;editable=1;locked=0;connectable=1;" parent="1" edge="1">
          <mxGeometry width="50" height="50" relative="1" as="geometry">
            <mxPoint x="450" y="170" as="sourcePoint" />
            <mxPoint x="540" y="170" as="targetPoint" />
            <Array as="points">
              <mxPoint x="450" y="170" />
            </Array>
          </mxGeometry>
        </mxCell>
        <mxCell id="oR5KdOzYDsC5t6uzYSJo-52" value="" style="endArrow=none;html=1;rounded=0;movable=1;resizable=1;rotatable=1;deletable=1;editable=1;locked=0;connectable=1;" parent="1" edge="1">
          <mxGeometry width="50" height="50" relative="1" as="geometry">
            <mxPoint x="450" y="210" as="sourcePoint" />
            <mxPoint x="540" y="210" as="targetPoint" />
            <Array as="points">
              <mxPoint x="450" y="210" />
            </Array>
          </mxGeometry>
        </mxCell>
        <mxCell id="oR5KdOzYDsC5t6uzYSJo-53" value="100" style="text;html=1;align=center;verticalAlign=middle;whiteSpace=wrap;rounded=0;" parent="1" vertex="1">
          <mxGeometry x="200" y="100" width="60" height="30" as="geometry" />
        </mxCell>
        <mxCell id="oR5KdOzYDsC5t6uzYSJo-54" value="200" style="text;html=1;align=center;verticalAlign=middle;whiteSpace=wrap;rounded=0;" parent="1" vertex="1">
          <mxGeometry x="339" y="180" width="60" height="30" as="geometry" />
        </mxCell>
        <mxCell id="oR5KdOzYDsC5t6uzYSJo-55" value="500" style="rounded=0;whiteSpace=wrap;html=1;" parent="1" vertex="1">
          <mxGeometry x="80" y="90" width="60" height="40" as="geometry" />
        </mxCell>
        <mxCell id="oR5KdOzYDsC5t6uzYSJo-56" style="edgeStyle=orthogonalEdgeStyle;rounded=0;orthogonalLoop=1;jettySize=auto;html=1;exitX=1;exitY=0.5;exitDx=0;exitDy=0;entryX=0.009;entryY=0.125;entryDx=0;entryDy=0;entryPerimeter=0;" parent="1" source="oR5KdOzYDsC5t6uzYSJo-55" target="oR5KdOzYDsC5t6uzYSJo-40" edge="1">
          <mxGeometry relative="1" as="geometry" />
        </mxCell>
        <mxCell id="oR5KdOzYDsC5t6uzYSJo-57" style="edgeStyle=orthogonalEdgeStyle;rounded=0;orthogonalLoop=1;jettySize=auto;html=1;exitX=1;exitY=0.5;exitDx=0;exitDy=0;entryX=0.016;entryY=0.619;entryDx=0;entryDy=0;entryPerimeter=0;" parent="1" source="oR5KdOzYDsC5t6uzYSJo-40" target="oR5KdOzYDsC5t6uzYSJo-45" edge="1">
          <mxGeometry relative="1" as="geometry">
            <Array as="points">
              <mxPoint x="280" y="110" />
              <mxPoint x="302" y="110" />
              <mxPoint x="302" y="189" />
            </Array>
          </mxGeometry>
        </mxCell>
        <mxCell id="oR5KdOzYDsC5t6uzYSJo-58" style="edgeStyle=orthogonalEdgeStyle;rounded=0;orthogonalLoop=1;jettySize=auto;html=1;exitX=1;exitY=0.5;exitDx=0;exitDy=0;entryX=-0.005;entryY=0.37;entryDx=0;entryDy=0;entryPerimeter=0;" parent="1" source="oR5KdOzYDsC5t6uzYSJo-45" target="oR5KdOzYDsC5t6uzYSJo-49" edge="1">
          <mxGeometry relative="1" as="geometry">
            <Array as="points">
              <mxPoint x="414" y="190" />
              <mxPoint x="434" y="190" />
              <mxPoint x="434" y="149" />
            </Array>
          </mxGeometry>
        </mxCell>
        <mxCell id="oR5KdOzYDsC5t6uzYSJo-59" value="Before Inserting 500" style="text;html=1;align=center;verticalAlign=middle;resizable=0;points=[];autosize=1;strokeColor=none;fillColor=none;" parent="1" vertex="1">
          <mxGeometry x="75" y="40" width="130" height="30" as="geometry" />
        </mxCell>
        <mxCell id="oR5KdOzYDsC5t6uzYSJo-60" value="" style="rounded=0;whiteSpace=wrap;html=1;movable=1;resizable=1;rotatable=1;deletable=1;editable=1;locked=0;connectable=1;" parent="1" vertex="1">
          <mxGeometry x="190" y="345" width="90" height="160" as="geometry" />
        </mxCell>
        <mxCell id="oR5KdOzYDsC5t6uzYSJo-61" value="" style="endArrow=none;html=1;rounded=0;movable=1;resizable=1;rotatable=1;deletable=1;editable=1;locked=0;connectable=1;" parent="1" edge="1">
          <mxGeometry width="50" height="50" relative="1" as="geometry">
            <mxPoint x="190" y="385" as="sourcePoint" />
            <mxPoint x="280" y="385" as="targetPoint" />
            <Array as="points">
              <mxPoint x="190" y="385" />
            </Array>
          </mxGeometry>
        </mxCell>
        <mxCell id="oR5KdOzYDsC5t6uzYSJo-62" value="" style="endArrow=none;html=1;rounded=0;movable=1;resizable=1;rotatable=1;deletable=1;editable=1;locked=0;connectable=1;" parent="1" edge="1">
          <mxGeometry width="50" height="50" relative="1" as="geometry">
            <mxPoint x="190" y="425" as="sourcePoint" />
            <mxPoint x="280" y="425" as="targetPoint" />
            <Array as="points">
              <mxPoint x="190" y="425" />
            </Array>
          </mxGeometry>
        </mxCell>
        <mxCell id="oR5KdOzYDsC5t6uzYSJo-63" value="" style="endArrow=none;html=1;rounded=0;movable=1;resizable=1;rotatable=1;deletable=1;editable=1;locked=0;connectable=1;" parent="1" edge="1">
          <mxGeometry width="50" height="50" relative="1" as="geometry">
            <mxPoint x="190" y="465" as="sourcePoint" />
            <mxPoint x="280" y="465" as="targetPoint" />
            <Array as="points">
              <mxPoint x="190" y="465" />
            </Array>
          </mxGeometry>
        </mxCell>
        <mxCell id="oR5KdOzYDsC5t6uzYSJo-64" value="" style="rounded=0;whiteSpace=wrap;html=1;movable=1;resizable=1;rotatable=1;deletable=1;editable=1;locked=0;connectable=1;" parent="1" vertex="1">
          <mxGeometry x="324" y="345" width="90" height="160" as="geometry" />
        </mxCell>
        <mxCell id="oR5KdOzYDsC5t6uzYSJo-65" value="" style="endArrow=none;html=1;rounded=0;movable=1;resizable=1;rotatable=1;deletable=1;editable=1;locked=0;connectable=1;" parent="1" edge="1">
          <mxGeometry width="50" height="50" relative="1" as="geometry">
            <mxPoint x="324" y="385" as="sourcePoint" />
            <mxPoint x="414" y="385" as="targetPoint" />
            <Array as="points">
              <mxPoint x="324" y="385" />
            </Array>
          </mxGeometry>
        </mxCell>
        <mxCell id="oR5KdOzYDsC5t6uzYSJo-66" value="" style="endArrow=none;html=1;rounded=0;movable=1;resizable=1;rotatable=1;deletable=1;editable=1;locked=0;connectable=1;" parent="1" edge="1">
          <mxGeometry width="50" height="50" relative="1" as="geometry">
            <mxPoint x="324" y="425" as="sourcePoint" />
            <mxPoint x="414" y="425" as="targetPoint" />
            <Array as="points">
              <mxPoint x="324" y="425" />
            </Array>
          </mxGeometry>
        </mxCell>
        <mxCell id="oR5KdOzYDsC5t6uzYSJo-67" value="" style="endArrow=none;html=1;rounded=0;movable=1;resizable=1;rotatable=1;deletable=1;editable=1;locked=0;connectable=1;" parent="1" edge="1">
          <mxGeometry width="50" height="50" relative="1" as="geometry">
            <mxPoint x="324" y="465" as="sourcePoint" />
            <mxPoint x="414" y="465" as="targetPoint" />
            <Array as="points">
              <mxPoint x="324" y="465" />
            </Array>
          </mxGeometry>
        </mxCell>
        <mxCell id="oR5KdOzYDsC5t6uzYSJo-68" value="" style="rounded=0;whiteSpace=wrap;html=1;movable=1;resizable=1;rotatable=1;deletable=1;editable=1;locked=0;connectable=1;" parent="1" vertex="1">
          <mxGeometry x="450" y="345" width="90" height="160" as="geometry" />
        </mxCell>
        <mxCell id="oR5KdOzYDsC5t6uzYSJo-69" value="" style="endArrow=none;html=1;rounded=0;movable=1;resizable=1;rotatable=1;deletable=1;editable=1;locked=0;connectable=1;" parent="1" edge="1">
          <mxGeometry width="50" height="50" relative="1" as="geometry">
            <mxPoint x="450" y="385" as="sourcePoint" />
            <mxPoint x="540" y="385" as="targetPoint" />
            <Array as="points">
              <mxPoint x="450" y="385" />
            </Array>
          </mxGeometry>
        </mxCell>
        <mxCell id="oR5KdOzYDsC5t6uzYSJo-70" value="" style="endArrow=none;html=1;rounded=0;movable=1;resizable=1;rotatable=1;deletable=1;editable=1;locked=0;connectable=1;" parent="1" edge="1">
          <mxGeometry width="50" height="50" relative="1" as="geometry">
            <mxPoint x="450" y="425" as="sourcePoint" />
            <mxPoint x="540" y="425" as="targetPoint" />
            <Array as="points">
              <mxPoint x="450" y="425" />
            </Array>
          </mxGeometry>
        </mxCell>
        <mxCell id="oR5KdOzYDsC5t6uzYSJo-71" value="" style="endArrow=none;html=1;rounded=0;movable=1;resizable=1;rotatable=1;deletable=1;editable=1;locked=0;connectable=1;" parent="1" edge="1">
          <mxGeometry width="50" height="50" relative="1" as="geometry">
            <mxPoint x="450" y="465" as="sourcePoint" />
            <mxPoint x="540" y="465" as="targetPoint" />
            <Array as="points">
              <mxPoint x="450" y="465" />
            </Array>
          </mxGeometry>
        </mxCell>
        <mxCell id="oR5KdOzYDsC5t6uzYSJo-72" value="500" style="text;html=1;align=center;verticalAlign=middle;whiteSpace=wrap;rounded=0;" parent="1" vertex="1">
          <mxGeometry x="200" y="355" width="60" height="30" as="geometry" />
        </mxCell>
        <mxCell id="oR5KdOzYDsC5t6uzYSJo-73" value="100" style="text;html=1;align=center;verticalAlign=middle;whiteSpace=wrap;rounded=0;" parent="1" vertex="1">
          <mxGeometry x="339" y="431" width="60" height="30" as="geometry" />
        </mxCell>
        <mxCell id="oR5KdOzYDsC5t6uzYSJo-78" value="After Inserting 500" style="text;html=1;align=center;verticalAlign=middle;resizable=0;points=[];autosize=1;strokeColor=none;fillColor=none;" parent="1" vertex="1">
          <mxGeometry x="80" y="315" width="120" height="30" as="geometry" />
        </mxCell>
        <mxCell id="oR5KdOzYDsC5t6uzYSJo-79" value="200" style="text;html=1;align=center;verticalAlign=middle;resizable=0;points=[];autosize=1;strokeColor=none;fillColor=none;" parent="1" vertex="1">
          <mxGeometry x="475" y="390" width="40" height="30" as="geometry" />
        </mxCell>
        <mxCell id="oR5KdOzYDsC5t6uzYSJo-80" value="&lt;font style=&quot;font-size: 18px;&quot;&gt;DyCuckoo Implementation&lt;/font&gt;" style="text;html=1;align=center;verticalAlign=middle;resizable=0;points=[];autosize=1;strokeColor=none;fillColor=none;" parent="1" vertex="1">
          <mxGeometry x="219" y="5" width="230" height="40" as="geometry" />
        </mxCell>
        <mxCell id="oR5KdOzYDsC5t6uzYSJo-120" style="edgeStyle=orthogonalEdgeStyle;rounded=0;orthogonalLoop=1;jettySize=auto;html=1;exitX=1;exitY=0.5;exitDx=0;exitDy=0;entryX=1;entryY=0.5;entryDx=0;entryDy=0;" parent="1" source="oR5KdOzYDsC5t6uzYSJo-81" target="oR5KdOzYDsC5t6uzYSJo-117" edge="1">
          <mxGeometry relative="1" as="geometry">
            <Array as="points">
              <mxPoint x="935" y="110" />
              <mxPoint x="955" y="110" />
              <mxPoint x="955" y="290" />
            </Array>
          </mxGeometry>
        </mxCell>
        <mxCell id="oR5KdOzYDsC5t6uzYSJo-81" value="" style="rounded=0;whiteSpace=wrap;html=1;movable=1;resizable=1;rotatable=1;deletable=1;editable=1;locked=0;connectable=1;" parent="1" vertex="1">
          <mxGeometry x="845" y="90" width="90" height="160" as="geometry" />
        </mxCell>
        <mxCell id="oR5KdOzYDsC5t6uzYSJo-82" value="" style="endArrow=none;html=1;rounded=0;movable=1;resizable=1;rotatable=1;deletable=1;editable=1;locked=0;connectable=1;" parent="1" edge="1">
          <mxGeometry width="50" height="50" relative="1" as="geometry">
            <mxPoint x="845" y="130" as="sourcePoint" />
            <mxPoint x="935" y="130" as="targetPoint" />
            <Array as="points">
              <mxPoint x="845" y="130" />
            </Array>
          </mxGeometry>
        </mxCell>
        <mxCell id="oR5KdOzYDsC5t6uzYSJo-83" value="" style="endArrow=none;html=1;rounded=0;movable=1;resizable=1;rotatable=1;deletable=1;editable=1;locked=0;connectable=1;" parent="1" edge="1">
          <mxGeometry width="50" height="50" relative="1" as="geometry">
            <mxPoint x="845" y="170" as="sourcePoint" />
            <mxPoint x="935" y="170" as="targetPoint" />
            <Array as="points">
              <mxPoint x="845" y="170" />
            </Array>
          </mxGeometry>
        </mxCell>
        <mxCell id="oR5KdOzYDsC5t6uzYSJo-84" value="" style="endArrow=none;html=1;rounded=0;movable=1;resizable=1;rotatable=1;deletable=1;editable=1;locked=0;connectable=1;" parent="1" edge="1">
          <mxGeometry width="50" height="50" relative="1" as="geometry">
            <mxPoint x="845" y="210" as="sourcePoint" />
            <mxPoint x="935" y="210" as="targetPoint" />
            <Array as="points">
              <mxPoint x="845" y="210" />
            </Array>
          </mxGeometry>
        </mxCell>
        <mxCell id="oR5KdOzYDsC5t6uzYSJo-123" style="edgeStyle=orthogonalEdgeStyle;rounded=0;orthogonalLoop=1;jettySize=auto;html=1;exitX=1;exitY=0.5;exitDx=0;exitDy=0;entryX=1;entryY=0.5;entryDx=0;entryDy=0;" parent="1" source="oR5KdOzYDsC5t6uzYSJo-85" target="oR5KdOzYDsC5t6uzYSJo-118" edge="1">
          <mxGeometry relative="1" as="geometry">
            <Array as="points">
              <mxPoint x="1110" y="150" />
              <mxPoint x="1130" y="150" />
              <mxPoint x="1130" y="290" />
            </Array>
          </mxGeometry>
        </mxCell>
        <mxCell id="oR5KdOzYDsC5t6uzYSJo-85" value="" style="rounded=0;whiteSpace=wrap;html=1;movable=1;resizable=1;rotatable=1;deletable=1;editable=1;locked=0;connectable=1;" parent="1" vertex="1">
          <mxGeometry x="1020" y="90" width="90" height="160" as="geometry" />
        </mxCell>
        <mxCell id="oR5KdOzYDsC5t6uzYSJo-86" value="" style="endArrow=none;html=1;rounded=0;movable=1;resizable=1;rotatable=1;deletable=1;editable=1;locked=0;connectable=1;" parent="1" edge="1">
          <mxGeometry width="50" height="50" relative="1" as="geometry">
            <mxPoint x="1020" y="130" as="sourcePoint" />
            <mxPoint x="1110" y="130" as="targetPoint" />
            <Array as="points">
              <mxPoint x="1020" y="130" />
            </Array>
          </mxGeometry>
        </mxCell>
        <mxCell id="oR5KdOzYDsC5t6uzYSJo-87" value="" style="endArrow=none;html=1;rounded=0;movable=1;resizable=1;rotatable=1;deletable=1;editable=1;locked=0;connectable=1;" parent="1" edge="1">
          <mxGeometry width="50" height="50" relative="1" as="geometry">
            <mxPoint x="1020" y="170" as="sourcePoint" />
            <mxPoint x="1110" y="170" as="targetPoint" />
            <Array as="points">
              <mxPoint x="1020" y="170" />
            </Array>
          </mxGeometry>
        </mxCell>
        <mxCell id="oR5KdOzYDsC5t6uzYSJo-88" value="" style="endArrow=none;html=1;rounded=0;movable=1;resizable=1;rotatable=1;deletable=1;editable=1;locked=0;connectable=1;" parent="1" edge="1">
          <mxGeometry width="50" height="50" relative="1" as="geometry">
            <mxPoint x="1020" y="210" as="sourcePoint" />
            <mxPoint x="1110" y="210" as="targetPoint" />
            <Array as="points">
              <mxPoint x="1020" y="210" />
            </Array>
          </mxGeometry>
        </mxCell>
        <mxCell id="oR5KdOzYDsC5t6uzYSJo-89" value="" style="rounded=0;whiteSpace=wrap;html=1;movable=1;resizable=1;rotatable=1;deletable=1;editable=1;locked=0;connectable=1;" parent="1" vertex="1">
          <mxGeometry x="1146" y="90" width="90" height="160" as="geometry" />
        </mxCell>
        <mxCell id="oR5KdOzYDsC5t6uzYSJo-90" value="" style="endArrow=none;html=1;rounded=0;movable=1;resizable=1;rotatable=1;deletable=1;editable=1;locked=0;connectable=1;" parent="1" edge="1">
          <mxGeometry width="50" height="50" relative="1" as="geometry">
            <mxPoint x="1146" y="130" as="sourcePoint" />
            <mxPoint x="1236" y="130" as="targetPoint" />
            <Array as="points">
              <mxPoint x="1146" y="130" />
            </Array>
          </mxGeometry>
        </mxCell>
        <mxCell id="oR5KdOzYDsC5t6uzYSJo-91" value="" style="endArrow=none;html=1;rounded=0;movable=1;resizable=1;rotatable=1;deletable=1;editable=1;locked=0;connectable=1;" parent="1" edge="1">
          <mxGeometry width="50" height="50" relative="1" as="geometry">
            <mxPoint x="1146" y="170" as="sourcePoint" />
            <mxPoint x="1236" y="170" as="targetPoint" />
            <Array as="points">
              <mxPoint x="1146" y="170" />
            </Array>
          </mxGeometry>
        </mxCell>
        <mxCell id="oR5KdOzYDsC5t6uzYSJo-92" value="" style="endArrow=none;html=1;rounded=0;movable=1;resizable=1;rotatable=1;deletable=1;editable=1;locked=0;connectable=1;" parent="1" edge="1">
          <mxGeometry width="50" height="50" relative="1" as="geometry">
            <mxPoint x="1146" y="210" as="sourcePoint" />
            <mxPoint x="1236" y="210" as="targetPoint" />
            <Array as="points">
              <mxPoint x="1146" y="210" />
            </Array>
          </mxGeometry>
        </mxCell>
        <mxCell id="oR5KdOzYDsC5t6uzYSJo-93" value="100" style="text;html=1;align=center;verticalAlign=middle;whiteSpace=wrap;rounded=0;" parent="1" vertex="1">
          <mxGeometry x="855" y="100" width="60" height="30" as="geometry" />
        </mxCell>
        <mxCell id="oR5KdOzYDsC5t6uzYSJo-94" value="200" style="text;html=1;align=center;verticalAlign=middle;whiteSpace=wrap;rounded=0;" parent="1" vertex="1">
          <mxGeometry x="1035" y="180" width="60" height="30" as="geometry" />
        </mxCell>
        <mxCell id="oR5KdOzYDsC5t6uzYSJo-95" value="500" style="rounded=0;whiteSpace=wrap;html=1;" parent="1" vertex="1">
          <mxGeometry x="735" y="90" width="60" height="40" as="geometry" />
        </mxCell>
        <mxCell id="oR5KdOzYDsC5t6uzYSJo-96" style="edgeStyle=orthogonalEdgeStyle;rounded=0;orthogonalLoop=1;jettySize=auto;html=1;exitX=1;exitY=0.5;exitDx=0;exitDy=0;entryX=0.009;entryY=0.125;entryDx=0;entryDy=0;entryPerimeter=0;" parent="1" source="oR5KdOzYDsC5t6uzYSJo-95" target="oR5KdOzYDsC5t6uzYSJo-81" edge="1">
          <mxGeometry relative="1" as="geometry" />
        </mxCell>
        <mxCell id="oR5KdOzYDsC5t6uzYSJo-99" value="Before Inserting 500" style="text;html=1;align=center;verticalAlign=middle;resizable=0;points=[];autosize=1;strokeColor=none;fillColor=none;" parent="1" vertex="1">
          <mxGeometry x="730" y="40" width="130" height="30" as="geometry" />
        </mxCell>
        <mxCell id="oR5KdOzYDsC5t6uzYSJo-100" value="" style="rounded=0;whiteSpace=wrap;html=1;movable=1;resizable=1;rotatable=1;deletable=1;editable=1;locked=0;connectable=1;" parent="1" vertex="1">
          <mxGeometry x="846" y="430" width="90" height="160" as="geometry" />
        </mxCell>
        <mxCell id="oR5KdOzYDsC5t6uzYSJo-101" value="" style="endArrow=none;html=1;rounded=0;movable=1;resizable=1;rotatable=1;deletable=1;editable=1;locked=0;connectable=1;" parent="1" edge="1">
          <mxGeometry width="50" height="50" relative="1" as="geometry">
            <mxPoint x="846" y="470" as="sourcePoint" />
            <mxPoint x="936" y="470" as="targetPoint" />
            <Array as="points">
              <mxPoint x="846" y="470" />
            </Array>
          </mxGeometry>
        </mxCell>
        <mxCell id="oR5KdOzYDsC5t6uzYSJo-102" value="" style="endArrow=none;html=1;rounded=0;movable=1;resizable=1;rotatable=1;deletable=1;editable=1;locked=0;connectable=1;" parent="1" edge="1">
          <mxGeometry width="50" height="50" relative="1" as="geometry">
            <mxPoint x="846" y="510" as="sourcePoint" />
            <mxPoint x="936" y="510" as="targetPoint" />
            <Array as="points">
              <mxPoint x="846" y="510" />
            </Array>
          </mxGeometry>
        </mxCell>
        <mxCell id="oR5KdOzYDsC5t6uzYSJo-103" value="" style="endArrow=none;html=1;rounded=0;movable=1;resizable=1;rotatable=1;deletable=1;editable=1;locked=0;connectable=1;" parent="1" edge="1">
          <mxGeometry width="50" height="50" relative="1" as="geometry">
            <mxPoint x="846" y="550" as="sourcePoint" />
            <mxPoint x="936" y="550" as="targetPoint" />
            <Array as="points">
              <mxPoint x="846" y="550" />
            </Array>
          </mxGeometry>
        </mxCell>
        <mxCell id="oR5KdOzYDsC5t6uzYSJo-104" value="" style="rounded=0;whiteSpace=wrap;html=1;movable=1;resizable=1;rotatable=1;deletable=1;editable=1;locked=0;connectable=1;" parent="1" vertex="1">
          <mxGeometry x="1026" y="430" width="90" height="160" as="geometry" />
        </mxCell>
        <mxCell id="oR5KdOzYDsC5t6uzYSJo-105" value="" style="endArrow=none;html=1;rounded=0;movable=1;resizable=1;rotatable=1;deletable=1;editable=1;locked=0;connectable=1;" parent="1" edge="1">
          <mxGeometry width="50" height="50" relative="1" as="geometry">
            <mxPoint x="1026" y="470" as="sourcePoint" />
            <mxPoint x="1116" y="470" as="targetPoint" />
            <Array as="points">
              <mxPoint x="1026" y="470" />
            </Array>
          </mxGeometry>
        </mxCell>
        <mxCell id="oR5KdOzYDsC5t6uzYSJo-106" value="" style="endArrow=none;html=1;rounded=0;movable=1;resizable=1;rotatable=1;deletable=1;editable=1;locked=0;connectable=1;" parent="1" edge="1">
          <mxGeometry width="50" height="50" relative="1" as="geometry">
            <mxPoint x="1026" y="510" as="sourcePoint" />
            <mxPoint x="1116" y="510" as="targetPoint" />
            <Array as="points">
              <mxPoint x="1026" y="510" />
            </Array>
          </mxGeometry>
        </mxCell>
        <mxCell id="oR5KdOzYDsC5t6uzYSJo-107" value="" style="endArrow=none;html=1;rounded=0;movable=1;resizable=1;rotatable=1;deletable=1;editable=1;locked=0;connectable=1;" parent="1" edge="1">
          <mxGeometry width="50" height="50" relative="1" as="geometry">
            <mxPoint x="1026" y="550" as="sourcePoint" />
            <mxPoint x="1116" y="550" as="targetPoint" />
            <Array as="points">
              <mxPoint x="1026" y="550" />
            </Array>
          </mxGeometry>
        </mxCell>
        <mxCell id="oR5KdOzYDsC5t6uzYSJo-108" value="" style="rounded=0;whiteSpace=wrap;html=1;movable=1;resizable=1;rotatable=1;deletable=1;editable=1;locked=0;connectable=1;" parent="1" vertex="1">
          <mxGeometry x="1152" y="430" width="90" height="160" as="geometry" />
        </mxCell>
        <mxCell id="oR5KdOzYDsC5t6uzYSJo-109" value="" style="endArrow=none;html=1;rounded=0;movable=1;resizable=1;rotatable=1;deletable=1;editable=1;locked=0;connectable=1;" parent="1" edge="1">
          <mxGeometry width="50" height="50" relative="1" as="geometry">
            <mxPoint x="1152" y="470" as="sourcePoint" />
            <mxPoint x="1242" y="470" as="targetPoint" />
            <Array as="points">
              <mxPoint x="1152" y="470" />
            </Array>
          </mxGeometry>
        </mxCell>
        <mxCell id="oR5KdOzYDsC5t6uzYSJo-110" value="" style="endArrow=none;html=1;rounded=0;movable=1;resizable=1;rotatable=1;deletable=1;editable=1;locked=0;connectable=1;" parent="1" edge="1">
          <mxGeometry width="50" height="50" relative="1" as="geometry">
            <mxPoint x="1152" y="510" as="sourcePoint" />
            <mxPoint x="1242" y="510" as="targetPoint" />
            <Array as="points">
              <mxPoint x="1152" y="510" />
            </Array>
          </mxGeometry>
        </mxCell>
        <mxCell id="oR5KdOzYDsC5t6uzYSJo-111" value="" style="endArrow=none;html=1;rounded=0;movable=1;resizable=1;rotatable=1;deletable=1;editable=1;locked=0;connectable=1;" parent="1" edge="1">
          <mxGeometry width="50" height="50" relative="1" as="geometry">
            <mxPoint x="1152" y="550" as="sourcePoint" />
            <mxPoint x="1242" y="550" as="targetPoint" />
            <Array as="points">
              <mxPoint x="1152" y="550" />
            </Array>
          </mxGeometry>
        </mxCell>
        <mxCell id="oR5KdOzYDsC5t6uzYSJo-112" value="500" style="text;html=1;align=center;verticalAlign=middle;whiteSpace=wrap;rounded=0;" parent="1" vertex="1">
          <mxGeometry x="859" y="437" width="60" height="30" as="geometry" />
        </mxCell>
        <mxCell id="oR5KdOzYDsC5t6uzYSJo-113" value="200" style="text;html=1;align=center;verticalAlign=middle;whiteSpace=wrap;rounded=0;" parent="1" vertex="1">
          <mxGeometry x="1041" y="516" width="60" height="30" as="geometry" />
        </mxCell>
        <mxCell id="oR5KdOzYDsC5t6uzYSJo-114" value="After Inserting 500" style="text;html=1;align=center;verticalAlign=middle;resizable=0;points=[];autosize=1;strokeColor=none;fillColor=none;" parent="1" vertex="1">
          <mxGeometry x="736" y="400" width="120" height="30" as="geometry" />
        </mxCell>
        <mxCell id="oR5KdOzYDsC5t6uzYSJo-116" value="&lt;font style=&quot;font-size: 18px;&quot;&gt;Our Modified Implementation&lt;/font&gt;" style="text;html=1;align=center;verticalAlign=middle;resizable=0;points=[];autosize=1;strokeColor=none;fillColor=none;" parent="1" vertex="1">
          <mxGeometry x="864" y="5" width="250" height="40" as="geometry" />
        </mxCell>
        <mxCell id="oR5KdOzYDsC5t6uzYSJo-121" style="edgeStyle=orthogonalEdgeStyle;rounded=0;orthogonalLoop=1;jettySize=auto;html=1;entryX=-0.009;entryY=0.407;entryDx=0;entryDy=0;entryPerimeter=0;" parent="1" source="oR5KdOzYDsC5t6uzYSJo-117" target="oR5KdOzYDsC5t6uzYSJo-85" edge="1">
          <mxGeometry relative="1" as="geometry">
            <mxPoint x="890" y="350" as="targetPoint" />
            <Array as="points">
              <mxPoint x="890" y="330" />
              <mxPoint x="990" y="330" />
              <mxPoint x="990" y="155" />
            </Array>
          </mxGeometry>
        </mxCell>
        <mxCell id="oR5KdOzYDsC5t6uzYSJo-117" value="42" style="rounded=0;whiteSpace=wrap;html=1;" parent="1" vertex="1">
          <mxGeometry x="860" y="270" width="60" height="40" as="geometry" />
        </mxCell>
        <mxCell id="oR5KdOzYDsC5t6uzYSJo-118" value="&amp;nbsp;" style="rounded=0;whiteSpace=wrap;html=1;" parent="1" vertex="1">
          <mxGeometry x="1035" y="270" width="60" height="40" as="geometry" />
        </mxCell>
        <mxCell id="oR5KdOzYDsC5t6uzYSJo-119" value="&amp;nbsp;" style="rounded=0;whiteSpace=wrap;html=1;" parent="1" vertex="1">
          <mxGeometry x="1161" y="270" width="60" height="40" as="geometry" />
        </mxCell>
        <mxCell id="oR5KdOzYDsC5t6uzYSJo-122" value="82" style="text;html=1;align=center;verticalAlign=middle;resizable=0;points=[];autosize=1;strokeColor=none;fillColor=none;" parent="1" vertex="1">
          <mxGeometry x="1042" y="134" width="40" height="30" as="geometry" />
        </mxCell>
        <mxCell id="oR5KdOzYDsC5t6uzYSJo-124" value="100" style="rounded=0;whiteSpace=wrap;html=1;" parent="1" vertex="1">
          <mxGeometry x="859" y="610" width="60" height="40" as="geometry" />
        </mxCell>
        <mxCell id="oR5KdOzYDsC5t6uzYSJo-129" style="edgeStyle=orthogonalEdgeStyle;rounded=0;orthogonalLoop=1;jettySize=auto;html=1;exitX=1;exitY=0.5;exitDx=0;exitDy=0;entryX=0;entryY=0.5;entryDx=0;entryDy=0;" parent="1" source="oR5KdOzYDsC5t6uzYSJo-125" target="oR5KdOzYDsC5t6uzYSJo-108" edge="1">
          <mxGeometry relative="1" as="geometry">
            <Array as="points">
              <mxPoint x="1131" y="630" />
              <mxPoint x="1131" y="510" />
            </Array>
          </mxGeometry>
        </mxCell>
        <mxCell id="oR5KdOzYDsC5t6uzYSJo-125" value="82" style="rounded=0;whiteSpace=wrap;html=1;" parent="1" vertex="1">
          <mxGeometry x="1034" y="610" width="60" height="40" as="geometry" />
        </mxCell>
        <mxCell id="oR5KdOzYDsC5t6uzYSJo-126" value="&amp;nbsp;" style="rounded=0;whiteSpace=wrap;html=1;" parent="1" vertex="1">
          <mxGeometry x="1167" y="610" width="60" height="40" as="geometry" />
        </mxCell>
        <mxCell id="oR5KdOzYDsC5t6uzYSJo-127" value="42" style="text;html=1;align=center;verticalAlign=middle;resizable=0;points=[];autosize=1;strokeColor=none;fillColor=none;" parent="1" vertex="1">
          <mxGeometry x="1049" y="475" width="40" height="30" as="geometry" />
        </mxCell>
        <mxCell id="oR5KdOzYDsC5t6uzYSJo-128" style="edgeStyle=orthogonalEdgeStyle;rounded=0;orthogonalLoop=1;jettySize=auto;html=1;exitX=1;exitY=0.5;exitDx=0;exitDy=0;entryX=0.008;entryY=0.613;entryDx=0;entryDy=0;entryPerimeter=0;" parent="1" source="oR5KdOzYDsC5t6uzYSJo-124" target="oR5KdOzYDsC5t6uzYSJo-104" edge="1">
          <mxGeometry relative="1" as="geometry" />
        </mxCell>
        <mxCell id="oR5KdOzYDsC5t6uzYSJo-130" value="During Next Insertion" style="text;html=1;align=center;verticalAlign=middle;whiteSpace=wrap;rounded=0;" parent="1" vertex="1">
          <mxGeometry x="981" y="715" width="200" height="30" as="geometry" />
        </mxCell>
        <mxCell id="oR5KdOzYDsC5t6uzYSJo-134" value="" style="shape=flexArrow;endArrow=classic;html=1;rounded=0;endWidth=13.555555555555555;endSize=5.640000000000001;width=4;" parent="1" source="oR5KdOzYDsC5t6uzYSJo-130" edge="1">
          <mxGeometry width="50" height="50" relative="1" as="geometry">
            <mxPoint x="965" y="700" as="sourcePoint" />
            <mxPoint x="951" y="635" as="targetPoint" />
          </mxGeometry>
        </mxCell>
        <mxCell id="oR5KdOzYDsC5t6uzYSJo-135" value="" style="shape=flexArrow;endArrow=classic;html=1;rounded=0;exitX=0.439;exitY=-0.021;exitDx=0;exitDy=0;exitPerimeter=0;width=4.333333333333333;endSize=5.136666666666667;endWidth=14.555555555555555;" parent="1" source="oR5KdOzYDsC5t6uzYSJo-130" edge="1">
          <mxGeometry width="50" height="50" relative="1" as="geometry">
            <mxPoint x="1070" y="725" as="sourcePoint" />
            <mxPoint x="1131" y="635" as="targetPoint" />
          </mxGeometry>
        </mxCell>
        <mxCell id="mEgqyBBFgadhOAm4pZPs-1" value="(a) Dycuckoo before insert" style="text;html=1;align=center;verticalAlign=middle;resizable=0;points=[];autosize=1;strokeColor=none;fillColor=none;" vertex="1" parent="1">
          <mxGeometry x="254" y="270" width="160" height="30" as="geometry" />
        </mxCell>
        <mxCell id="mEgqyBBFgadhOAm4pZPs-2" value="(b) Dycuckoo after insert" style="text;html=1;align=center;verticalAlign=middle;resizable=0;points=[];autosize=1;strokeColor=none;fillColor=none;" vertex="1" parent="1">
          <mxGeometry x="265" y="521" width="150" height="30" as="geometry" />
        </mxCell>
        <mxCell id="mEgqyBBFgadhOAm4pZPs-3" value="(c) Our Implementation before insert" style="text;html=1;align=center;verticalAlign=middle;resizable=0;points=[];autosize=1;strokeColor=none;fillColor=none;" vertex="1" parent="1">
          <mxGeometry x="930" y="345" width="220" height="30" as="geometry" />
        </mxCell>
        <mxCell id="mEgqyBBFgadhOAm4pZPs-4" value="(d) Our Implementation after insert" style="text;html=1;align=center;verticalAlign=middle;resizable=0;points=[];autosize=1;strokeColor=none;fillColor=none;" vertex="1" parent="1">
          <mxGeometry x="951" y="770" width="210" height="30" as="geometry" />
        </mxCell>
      </root>
    </mxGraphModel>
  </diagram>
</mxfile>
